<svg width="232" height="753" viewBox="0 0 232 753" fill="none" xmlns="http://www.w3.org/2000/svg">
<path d="M180.353 726.044H165.663L158.674 668.203H180.353V726.044Z" fill="#FFB6B6"/>
<path d="M188.107 752.024H177.572L175.692 741.872L170.876 752.024H142.936C141.597 752.025 140.293 751.588 139.214 750.777C138.135 749.967 137.339 748.826 136.94 747.521C136.542 746.216 136.562 744.815 136.999 743.522C137.436 742.23 138.266 741.114 139.368 740.337L161.679 724.607V714.343L185.147 715.773L188.107 752.024Z" fill="#2F2E41"/>
<path d="M95.922 713.221L82.0909 718.276L56.411 666.228L76.8241 658.768L95.922 713.221Z" fill="#FFB6B6"/>
<path d="M113.687 727.917L104.588 733.336L97.9524 725.533L98.8042 736.78L74.6708 751.152C73.514 751.841 72.1718 752.134 70.84 751.989C69.5083 751.844 68.2568 751.269 67.2683 750.346C66.2798 749.424 65.606 748.203 65.3453 746.862C65.0846 745.521 65.2505 744.13 65.8191 742.892L77.3268 717.829L72.2604 708.963L93.2372 698.126L113.687 727.917Z" fill="#2F2E41"/>
<path d="M183.133 690.704H182.956L179.834 586.76C181.855 582.781 182.88 578.354 182.819 573.873C182.758 569.391 181.613 564.995 179.485 561.075L179.038 560.249L180.197 554.764C181.685 547.717 181.002 540.373 178.241 533.738L175.328 436.778C185.735 367.929 136.953 314.019 136.953 314.019H58.9027L45.8943 378.97L4.24689 541.49C2.4008 544.354 1.25212 547.627 0.896741 551.037C0.541366 554.446 0.989594 557.893 2.20394 561.089L61.3505 680.537L60.8943 680.773C60.0291 681.266 59.3828 682.079 59.0898 683.045C58.7967 684.011 58.8793 685.056 59.3204 685.961C60.0935 688.248 62.0518 689.632 63.6944 689.054L86.7501 677.149C87.6154 676.657 88.2616 675.843 88.5546 674.877C88.8477 673.911 88.7651 672.867 88.324 671.961C87.551 669.675 85.5926 668.29 83.95 668.869L81.2822 670.246L63.4367 580.455L62.8053 562.135L64.106 541.35L102.481 452.366L125.246 567.331L158.795 691.86C158.154 692.453 157.704 693.231 157.504 694.09C157.304 694.949 157.365 695.85 157.677 696.674C157.99 697.498 158.54 698.205 159.254 698.703C159.969 699.201 160.814 699.466 161.679 699.464H183.133C184.271 699.464 185.362 699.002 186.167 698.181C186.972 697.359 187.424 696.245 187.424 695.084C187.424 693.922 186.972 692.808 186.167 691.986C185.362 691.165 184.271 690.704 183.133 690.704Z" fill="#2F2E41"/>
<path d="M145.675 268.028L143.594 291.768C143.594 291.768 142.693 311.478 139.84 315.836C137.008 320.172 59.7322 320.72 59.7322 320.72C59.7322 320.72 54.6261 292.622 50.2281 268.028H145.675Z" fill="#FFB6B6"/>
<path d="M106.978 120.111C128.907 120.111 146.684 101.964 146.684 79.5786C146.684 57.1931 128.907 39.0461 106.978 39.0461C85.0494 39.0461 67.2726 57.1931 67.2726 79.5786C67.2726 101.964 85.0494 120.111 106.978 120.111Z" fill="#FFB6B6"/>
<path d="M127.354 127.866L95.4861 131.693C94.1422 131.855 92.8811 132.44 91.8785 133.368C90.876 134.295 90.1819 135.519 89.893 136.869L84.8251 160.542L53.2328 198.521C53.2328 198.521 41.8884 220.234 46.1425 244.843C50.3966 269.453 52.2662 287.738 52.2662 287.738C52.2662 287.738 137.012 320.174 139.848 315.832C142.684 311.489 143.604 291.763 143.604 291.763L154.949 162.928C154.949 162.928 142.186 141.214 135.096 141.214C130.52 141.056 131.107 130.543 127.354 127.866Z" fill="#FFDE11"/>
<path opacity="0.2" d="M113.282 211.109L99.1037 318.23L84.23 319.021L113.282 211.109Z" fill="black"/>
<path d="M51.4047 295.659C55.8735 295.659 59.4962 291.222 59.4962 285.747C59.4962 280.273 55.8735 275.835 51.4047 275.835C46.9358 275.835 43.313 280.273 43.313 285.747C43.313 291.222 46.9358 295.659 51.4047 295.659Z" fill="#FFDE11"/>
<path d="M106.843 418.117C108.529 416.405 109.827 414.335 110.645 412.054C111.464 409.774 111.782 407.338 111.578 404.918C111.375 402.499 110.654 400.154 109.466 398.05C108.279 395.945 106.654 394.132 104.706 392.738L131.27 261.499L102.61 270.729L81.2381 397.692C79.1609 401.188 78.4121 405.34 79.1336 409.362C79.8551 413.384 81.9969 416.996 85.153 419.514C88.3091 422.032 92.2602 423.28 96.2577 423.023C100.255 422.766 104.021 421.02 106.843 418.117Z" fill="#FFB6B6"/>
<path d="M127.97 144.741C127.97 144.741 147.068 136.302 158.662 157.548C170.256 178.794 153.524 252.635 151.176 264.619C148.828 276.603 116.627 333.729 116.627 333.729L84.4465 327.159L127.97 144.741Z" fill="#FFDE11"/>
<path d="M88.9185 40.8317C102.686 31.1659 114.81 29.6935 124.77 32.4349C126.06 30.3964 127.871 28.7553 130.007 27.6878C137.774 7.7085 161.412 -4.29011 181.698 1.54262C202.115 7.41306 216.202 30.5 212.36 51.7952C209.98 64.9949 201.842 76.425 198.569 89.4242C192.233 114.588 207.689 143.413 231.869 151.525C208.975 156.218 183.775 141.942 175.561 119.628C171.572 108.79 171.332 96.9565 170.824 85.39C170.318 73.8234 169.404 61.9092 164.27 51.5856C160.828 44.5048 155.111 38.8432 148.074 35.5454C148.704 37.5351 148.862 39.6491 148.534 41.7132C148.206 43.7773 147.401 45.7322 146.187 47.4165C151.556 54.2823 154.479 61.7073 154.479 66.1539C165.632 86.9632 149.683 104.838 129.298 116.223C121.167 120.788 111.778 122.459 102.614 120.972L101.761 117.255L100.606 120.603L96.7486 131.826C92.2987 134.024 87.8874 136.432 83.5148 139.053C85.176 131.089 86.5199 123.14 87.4447 115.367C88.7251 104.789 84.2619 89.0406 81.0423 79.4636C79.0461 73.5612 78.0216 67.3619 78.0105 61.1177V60.8446L74.8756 71.1238L63.4625 66.1538C65.5858 53.7214 63.4626 39.6077 88.9185 40.8317Z" fill="#2F2E41"/>
</svg>
