<?xml version="1.0" encoding="UTF-8"?>
<!DOCTYPE svg PUBLIC "-//W3C//DTD SVG 1.1//EN" "http://www.w3.org/Graphics/SVG/1.1/DTD/svg11.dtd">
<!-- Creator: CorelDRAW X7 -->
<svg xmlns="http://www.w3.org/2000/svg" xml:space="preserve" width="226.381mm" height="226.378mm" version="1.1" style="shape-rendering:geometricPrecision; text-rendering:geometricPrecision; image-rendering:optimizeQuality; fill-rule:evenodd; clip-rule:evenodd"
viewBox="0 0 22638 22638"
 xmlns:xlink="http://www.w3.org/1999/xlink">
 <defs>
  <style type="text/css">
   <![CDATA[
    .fil1 {fill:#FEFEFE}
    .fil0 {fill:#34302F;fill-rule:nonzero}
   ]]>
  </style>
 </defs>
 <g id="Layer_x0020_1">
  <metadata id="CorelCorpID_0Corel-Layer"/>
  <g id="_324964704">
   <path class="fil0" d="M22638 11319c0,6251 -5068,11319 -11319,11319 -6251,0 -11319,-5068 -11319,-11319 0,-6251 5068,-11319 11319,-11319 6251,0 11319,5068 11319,11319z"/>
   <path class="fil1" d="M14130 18252c412,64 997,71 1285,-79 92,-31 721,-355 847,-413 235,-120 653,-260 517,-681 -53,-148 -1344,-2098 -1484,-2325 -107,-159 -424,-663 -515,-768 -100,-107 -310,-186 -508,-144 -426,87 -1057,640 -1463,680 -1199,115 -3622,-4382 -3753,-4913 -279,-1118 929,-924 1480,-1503 110,-113 158,-290 90,-458 -69,-160 -1557,-2426 -1769,-2753 -148,-237 -319,-624 -764,-541 -136,21 -322,135 -428,188 -5354,2693 2326,13069 6465,13710l0 0z"/>
  </g>
 </g>
</svg>
