<svg width="472" height="473" viewBox="0 0 472 473" fill="none" xmlns="http://www.w3.org/2000/svg">
<path fill-rule="evenodd" clip-rule="evenodd" d="M23.868 401.325C10.8507 414.342 10.8506 435.448 23.868 448.465C36.8854 461.483 57.9911 461.483 71.0085 448.466L448.132 71.3421C461.15 58.3242 461.15 37.2185 448.132 24.2011C435.115 11.1838 414.009 11.1838 400.991 24.2016L23.868 401.325Z" fill="white"/>
<path fill-rule="evenodd" clip-rule="evenodd" d="M71.0085 24.2011C57.9911 11.1838 36.8854 11.1838 23.8681 24.2011C10.8507 37.2185 10.8507 58.3243 23.868 71.3416L400.991 448.465C414.009 461.483 435.115 461.483 448.132 448.465C461.15 435.448 461.15 414.342 448.132 401.325L71.0085 24.2011Z" fill="white"/>
</svg>
