<svg width="36" height="24" viewBox="0 0 36 24" fill="none" xmlns="http://www.w3.org/2000/svg">
<path d="M34.6667 0H0.888889C0.4 0 0 0.4 0 0.888889V23.1111C0 23.6 0.4 24 0.888889 24H34.6667C35.1556 24 35.5556 23.6 35.5556 23.1111V0.888889C35.5556 0.4 35.1556 0 34.6667 0ZM32.5333 1.77778L17.7778 16.5333L3.02222 1.77778H32.5333ZM1.77778 3.02222L10.7556 12L1.77778 20.9778V3.02222ZM3.06667 22.2222L12 13.2889L17.1556 18.4444C17.5111 18.8 18.0444 18.8 18.4 18.4444L23.5556 13.2889L32.4889 22.2222H3.06667ZM33.7778 20.9778L24.8 12L33.7778 3.02222V20.9778Z" fill="black"/>
</svg>
