<svg width="601" height="474" viewBox="0 0 601 474" fill="none" xmlns="http://www.w3.org/2000/svg">
<path fill-rule="evenodd" clip-rule="evenodd" d="M33.9999 0.333313C15.5906 0.333313 0.666588 15.2573 0.666588 33.6666C0.666588 52.076 15.5906 67 33.9999 67H567.333C585.743 67 600.667 52.076 600.667 33.6666C600.667 15.2573 585.743 0.333313 567.333 0.333313H33.9999ZM0.666592 233.667C0.666592 215.257 15.5906 200.333 33.9999 200.333H567.333C585.743 200.333 600.667 215.257 600.667 233.667C600.667 252.077 585.743 267 567.333 267H33.9999C15.5906 267 0.666592 252.077 0.666592 233.667ZM0.666573 440.333C0.666573 421.923 15.5899 407 33.9999 407L567.333 400.333C585.743 400.333 600.667 415.257 600.667 433.667C600.667 452.077 585.743 467 567.333 467L33.9999 473.667C15.5899 473.667 0.666573 458.743 0.666573 440.333Z" fill="white"/>
</svg>
