<svg width="568" height="557" viewBox="0 0 568 557" fill="none" xmlns="http://www.w3.org/2000/svg">
<path fill-rule="evenodd" clip-rule="evenodd" d="M489.854 541.766L474.673 541.72L467.452 483.247H489.854V541.766Z" fill="#A0616A"/>
<path fill-rule="evenodd" clip-rule="evenodd" d="M489.438 536.77L473.238 530.201L472.775 530.016L463.842 536.77C453.659 536.77 445.235 544.819 444.819 554.996C444.772 555.274 444.772 555.551 444.772 555.829V556.43H493.696V536.77H489.438Z" fill="#2F2E41"/>
<path fill-rule="evenodd" clip-rule="evenodd" d="M454.307 527.61L440.005 532.653L413.761 479.87L434.867 472.468L454.307 527.61Z" fill="#A0616A"/>
<path fill-rule="evenodd" clip-rule="evenodd" d="M452.271 523.077L434.821 522.244H434.312L428.11 531.589C420.519 534.272 415.427 541.442 415.427 549.538C415.427 551.388 415.705 553.285 416.214 555.043C416.307 555.32 416.399 555.598 416.492 555.875L416.677 556.43L462.824 540.193L456.297 521.689L452.271 523.077Z" fill="#2F2E41"/>
<path fill-rule="evenodd" clip-rule="evenodd" d="M495.223 289.556C509.109 289.001 491.891 399.563 491.891 399.563C491.891 399.563 496.936 496.616 495.871 501.705C494.807 506.793 495.733 520.533 495.733 520.533C493.002 515.583 464.953 519.33 464.953 519.33L461.111 420.981L441.625 342.154L414.641 394.983L440.514 476.077C440.514 476.077 451.021 485.791 449.91 489.585C448.753 493.424 421.306 502.075 416.26 502.26C411.215 502.491 413.483 496.061 413.252 489.77C413.021 483.478 389.23 425.006 380.898 405.114C372.521 385.222 379.047 357.188 383.305 336.834C387.564 316.433 410.012 278.222 410.012 278.222C437.829 246.812 481.338 290.065 495.223 289.556Z" fill="#2F2E41"/>
<path fill-rule="evenodd" clip-rule="evenodd" d="M326.05 200.182C327.994 203.883 331.79 206.196 335.955 206.196C338.455 206.196 340.862 205.363 342.852 203.836L376.224 225.625L376.131 204.9L344.426 187.414C342.296 185.008 339.242 183.621 336.002 183.621C329.753 183.621 324.708 188.663 324.708 194.908C324.708 196.759 325.171 198.563 326.05 200.182Z" fill="#A0616A"/>
<path fill-rule="evenodd" clip-rule="evenodd" d="M488.003 307.274C453.567 307.274 434.59 300.381 424.546 294.228C412.234 286.688 410.105 278.778 410.012 278.454V278.361L411.215 263.28L411.725 262.078C413.067 259.025 413.807 255.694 413.807 252.363C413.807 249.819 413.391 247.321 412.604 244.961V244.823V244.73L420.658 140.368L449.123 131.069L457.408 122.742L494.298 122.187L499.435 132.596L528.549 143.559L514.247 228.585L507.396 240.382L510.127 253.242V253.335L501.148 306.95H500.639C496.195 307.181 491.983 307.274 488.003 307.274Z" fill="#3F3D56"/>
<path fill-rule="evenodd" clip-rule="evenodd" d="M398.95 242.186L385.434 234.183L384.601 232.934C381.084 227.938 375.437 224.885 369.327 224.7H369.188L350.582 213.736L358.311 191.161L387.471 199.765L407.79 149.296C409.364 151.886 410.197 154.893 410.197 157.946C410.197 157.993 410.197 158.085 410.197 158.131V191.161L410.058 191.3L398.95 242.186Z" fill="#3F3D56"/>
<path fill-rule="evenodd" clip-rule="evenodd" d="M489.206 287.845C490.178 282.478 494.853 278.593 500.268 278.593C501.611 278.593 502.907 278.824 504.156 279.286L529.428 248.524L535.584 268.277L510.636 294.506C508.785 298.531 504.758 301.167 500.315 301.167C494.113 301.167 489.021 296.125 489.021 289.88C489.021 289.232 489.114 288.538 489.253 287.845H489.206Z" fill="#A0616A"/>
<path fill-rule="evenodd" clip-rule="evenodd" d="M527.068 283.959L510.266 267.166L520.958 241.122L536.464 219.981C519.94 211.932 507.535 192.919 498.556 177.144L498.463 176.959L500.685 159.473C504.943 154.153 511.423 151.007 518.274 151.007C526.003 151.007 533.224 154.986 537.297 161.555L567.429 228.493L567.105 228.956L542.851 270.266L536.279 274.522L527.068 283.959Z" fill="#3F3D56"/>
<path fill-rule="evenodd" clip-rule="evenodd" d="M502.351 87.076C500.268 102.296 487.262 113.629 471.895 113.629C454.909 113.629 441.162 99.89 441.162 82.9126C441.162 81.5248 441.255 80.1832 441.44 78.7954L441.486 78.3791C443.847 63.4834 456.714 52.4735 471.849 52.4735C488.836 52.4735 502.583 66.259 502.583 83.2364C502.583 84.5317 502.49 85.827 502.351 87.076Z" fill="#A0616A"/>
<path fill-rule="evenodd" clip-rule="evenodd" d="M494.529 102.943C496.103 99.705 497.723 96.2817 497.26 92.7197C496.843 89.204 493.372 85.7807 489.947 86.8447C487.91 87.4923 486.337 89.4815 484.207 89.6203C481.292 89.7591 479.579 86.3821 478.7 83.6065L474.95 72.2265C469.535 76.4362 462.87 78.7029 456.02 78.7029C453.798 78.7029 451.576 78.4716 449.355 78.009C445.929 77.1763 442.412 75.6498 440.375 72.7354C438.385 69.821 438.385 65.3338 441.162 63.1133C442.504 62.0493 444.356 61.633 445.652 60.4765C446.716 59.5513 447.364 58.1635 447.364 56.7294C447.364 53.9538 445.096 51.6871 442.319 51.6871C442.088 51.6871 441.856 51.7333 441.625 51.7333L451.021 50.5768L448.197 45.5345C449.725 46.5522 451.576 47.1073 453.428 47.1073C454.122 47.1073 454.863 47.0611 455.557 46.876C458.056 46.4134 460.463 45.3957 462.916 44.7018C464.166 44.2855 465.416 44.0542 466.712 44.0542C470.322 44.0542 473.747 45.6733 476.015 48.4489C478.514 51.6408 479.209 55.8967 479.301 59.9676C477.728 61.4479 475.645 62.2806 473.469 62.2806C473.099 62.2806 472.775 62.2344 472.451 62.1881L494.529 102.943Z" fill="#2F2E41"/>
<path fill-rule="evenodd" clip-rule="evenodd" d="M4.9684 92.8585C12.4666 106.043 25.334 115.572 39.1733 121.262C56.4841 128.34 75.7851 128.525 94.1604 126.952C111.24 125.518 128.134 122.049 145.259 121.401C149.009 121.262 152.85 121.216 156.646 121.216C166.088 121.216 175.576 121.678 184.972 122.326C210.614 124.223 236.164 127.554 261.528 131.624C268.379 132.735 275.229 133.937 282.079 135.14C282.727 135.279 283.375 135.325 283.977 135.51C284.116 135.557 284.301 135.51 284.44 135.603C284.625 135.742 283.607 135.233 284.208 135.788C285.134 136.667 285.782 137.777 286.569 138.795L295.918 150.822C298.603 154.292 300.269 162.156 304.574 161.231C308.971 160.259 309.295 153.552 312.257 150.175C323.412 137.176 340.075 130.468 351.831 118.255C356.83 113.074 357.617 105.071 358.357 97.9471C359.885 83.3752 355.488 68.572 347.943 56.2205C339.843 42.9439 328.04 32.2578 314.109 25.2726C298.418 17.3621 281.107 13.3837 263.704 11.4408C245.236 9.40537 226.537 8.89651 208.022 9.59041C185.111 10.4694 163.403 18.8887 132.809 2.51263C111.934 -8.63604 74.9519 30.8238 57.3635 44.378L1.12671 87.6311C-1.18756 89.389 4.27412 91.702 4.9684 92.8585Z" fill="#FFDE11"/>
<path fill-rule="evenodd" clip-rule="evenodd" d="M91.9387 92.6734C88.6524 92.5347 86.0605 89.8516 86.0605 86.5671C86.0605 86.3358 86.1067 86.0583 86.1067 85.827L86.5696 82.3575C86.5696 82.1724 86.5696 81.9874 86.5696 81.8486C86.5696 80.6458 86.1067 79.5356 85.2273 78.7492L82.6353 76.4362C81.3393 75.2797 80.5525 73.6143 80.5525 71.9027C80.5525 68.942 82.6816 66.444 85.5513 65.8889L88.9764 65.2412C90.3187 64.9637 91.4296 64.0847 91.985 62.8357L93.3735 59.6438C94.3455 57.4233 96.5672 55.9892 98.9741 55.9892C101.196 55.9892 103.279 57.2383 104.343 59.1812L106.009 62.2343C106.657 63.4371 107.861 64.2235 109.203 64.3623L112.675 64.6861C115.822 65.0099 118.183 67.6468 118.183 70.7924C118.183 72.319 117.581 73.8456 116.516 74.9559L114.156 77.5002C113.415 78.2866 112.999 79.258 112.999 80.322C112.999 80.5996 113.045 80.9234 113.091 81.201L113.832 84.6242C113.924 85.0405 113.971 85.4569 113.971 85.9195C113.971 89.2965 111.24 92.0258 107.861 92.0258C106.981 92.0258 106.056 91.7945 105.269 91.4244L102.121 89.9441C101.566 89.6665 100.964 89.5278 100.363 89.5278C99.6221 89.5278 98.8815 89.7591 98.2798 90.1291L95.2712 91.8408C94.2993 92.3959 93.2347 92.7197 92.1701 92.7197C92.0776 92.7197 91.985 92.7197 91.9387 92.6734Z" fill="white"/>
<path fill-rule="evenodd" clip-rule="evenodd" d="M141.048 91.2857C139.937 90.0829 139.289 88.5563 139.289 86.9372C139.289 86.6134 139.335 86.2896 139.381 85.9657L139.752 82.8201C139.798 82.635 139.798 82.45 139.798 82.2649C139.798 81.0622 139.289 79.9519 138.409 79.1655L136.002 76.9913C136.095 74.1232 138.178 71.7639 140.955 71.2088L144.38 70.5612C145.722 70.3299 146.88 69.4047 147.435 68.1556L148.685 65.2875C148.777 65.2875 148.916 65.2875 149.009 65.2875C151.23 65.2875 153.313 66.4903 154.378 68.4332L156.044 71.4401C156.692 72.6891 157.895 73.4755 159.284 73.6143L162.524 73.9381C163.172 74.9559 163.542 76.1586 163.542 77.3614C163.542 78.888 162.941 80.4145 161.876 81.5248L159.515 84.0691C158.775 84.8092 158.358 85.8732 158.358 86.9372C158.358 87.2148 158.405 87.5386 158.451 87.8161L159.145 90.9618C157.988 92.4422 156.229 93.3211 154.331 93.3211C153.406 93.3211 152.526 93.0898 151.693 92.7197L148.592 91.2394C148.037 90.9618 147.435 90.823 146.787 90.823C146.046 90.823 145.352 91.0543 144.704 91.4244L141.696 93.1361C141.372 92.5809 141.14 91.9333 141.048 91.2857Z" fill="white"/>
<path fill-rule="evenodd" clip-rule="evenodd" d="M190.249 91.0543C186.963 90.9156 184.417 88.2325 184.417 84.948C184.417 84.6705 184.417 84.4392 184.463 84.1616L184.88 80.7384C184.926 80.5533 184.926 80.3683 184.926 80.1832C184.926 79.0267 184.417 77.9165 183.537 77.1301L180.945 74.8171C179.65 73.6606 178.909 71.9952 178.909 70.2373C178.909 67.3229 180.992 64.7786 183.861 64.2235L187.287 63.5759C188.629 63.3446 189.74 62.4656 190.295 61.2166L191.73 58.0247C192.702 55.8042 194.877 54.3701 197.331 54.3701C199.552 54.3701 201.589 55.5729 202.653 57.5621L204.366 60.6152C205.014 61.7717 206.217 62.6044 207.56 62.6969L211.031 63.067C214.132 63.3908 216.493 66.0277 216.493 69.1271C216.493 70.6999 215.937 72.2265 214.873 73.3367L212.466 75.8811C211.725 76.6212 211.355 77.6389 211.355 78.7029C211.355 78.9805 211.355 79.3043 211.448 79.5819L212.188 82.9588C212.281 83.4214 212.327 83.8378 212.327 84.2541C212.327 87.6311 209.596 90.3604 206.217 90.3604C205.292 90.3604 204.412 90.1754 203.579 89.8053L200.432 88.325C199.876 88.0474 199.275 87.9087 198.673 87.9087C197.932 87.9087 197.238 88.0937 196.59 88.4638L193.581 90.2217C192.656 90.7768 191.591 91.0543 190.48 91.0543C190.434 91.0543 190.341 91.0543 190.249 91.0543Z" fill="white"/>
<path fill-rule="evenodd" clip-rule="evenodd" d="M238.154 89.7591C234.868 89.6203 232.276 86.9372 232.276 83.6527C232.276 83.3752 232.322 83.1439 232.322 82.8663L232.785 79.4431C232.785 79.258 232.785 79.073 232.785 78.888C232.785 77.7315 232.322 76.6212 231.443 75.8348L228.851 73.5218C227.555 72.3653 226.768 70.6999 226.768 68.942C226.768 66.0277 228.897 63.4834 231.767 62.9282L235.192 62.2806C236.534 62.0493 237.645 61.1704 238.201 59.9213L239.589 56.7294C240.561 54.5089 242.783 53.0749 245.19 53.0749C247.411 53.0749 249.494 54.2776 250.559 56.2668L252.225 59.32C252.873 60.4765 254.076 61.2629 255.419 61.4017L258.89 61.7717C262.038 62.0956 264.398 64.7324 264.398 67.8318C264.398 69.4046 263.796 70.885 262.732 72.0415L260.371 74.5858C259.631 75.3259 259.214 76.3437 259.214 77.4076C259.214 77.6852 259.26 77.9628 259.307 78.2866L260.047 81.6636C260.14 82.0799 260.186 82.5425 260.186 82.9588C260.186 86.3358 257.455 89.0652 254.076 89.0652C253.197 89.0652 252.271 88.8801 251.484 88.51L248.337 87.0297C247.782 86.7522 247.18 86.6134 246.578 86.6134C245.838 86.6134 245.097 86.7984 244.495 87.1685L241.487 88.9264C240.515 89.4815 239.45 89.7591 238.386 89.7591C238.293 89.7591 238.201 89.7591 238.154 89.7591Z" fill="black" fill-opacity="0.2"/>
<path fill-rule="evenodd" clip-rule="evenodd" d="M286.013 88.4638C282.773 88.325 280.181 85.6419 280.181 82.3575C280.181 82.0799 280.181 81.8486 280.228 81.571L280.644 78.1015C280.691 77.9628 280.691 77.7777 280.691 77.5927C280.691 76.4362 280.181 75.3259 279.302 74.5395L276.71 72.2265C275.414 71.07 274.673 69.4046 274.673 67.6468C274.673 64.7324 276.756 62.1881 279.626 61.633L283.051 60.9853C284.393 60.754 285.551 59.8751 286.06 58.6261L287.495 55.4341C288.467 53.2136 290.642 51.7796 293.095 51.7796C295.317 51.7796 297.353 52.9823 298.418 54.9253L300.13 57.9784C300.778 59.1812 301.982 59.9676 303.324 60.1064L306.796 60.4765C309.897 60.8003 312.303 63.4371 312.303 66.5365C312.303 68.1094 311.702 69.5897 310.637 70.7462L308.23 73.2905C307.536 74.0307 307.12 75.0484 307.12 76.1124C307.12 76.3899 307.166 76.6675 307.212 76.9913L307.953 80.3683C308.045 80.7846 308.092 81.2472 308.092 81.6636C308.092 85.0405 305.361 87.7699 301.982 87.7699C301.056 87.7699 300.177 87.5848 299.344 87.2148L296.196 85.7344C295.641 85.4569 295.039 85.3181 294.437 85.3181C293.697 85.3181 293.002 85.5031 292.354 85.8732L289.346 87.6311C288.42 88.1862 287.356 88.4638 286.245 88.4638C286.199 88.4638 286.106 88.4638 286.013 88.4638Z" fill="black" fill-opacity="0.2"/>
</svg>
